<?xml version="1.0" standalone="no"?>
<!DOCTYPE svg PUBLIC "-//W3C//DTD SVG 20010904//EN"
 "http://www.w3.org/TR/2001/REC-SVG-20010904/DTD/svg10.dtd">
<svg version="1.0" xmlns="http://www.w3.org/2000/svg"
 width="509.000000pt" height="509.000000pt" viewBox="0 0 509.000000 509.000000"
 preserveAspectRatio="xMidYMid meet">
<metadata>
Created by potrace 1.11, written by Peter Selinger 2001-2013
</metadata>
<g transform="translate(0.000000,509.000000) scale(0.100000,-0.100000)"
fill="#000000" stroke="none">
<path d="M2350 4283 c-83 -9 -248 -46 -347 -78 -594 -195 -1034 -693 -1164
-1317 -31 -150 -37 -416 -14 -580 105 -741 655 -1320 1397 -1470 97 -20 143
-23 328 -23 185 0 231 3 328 23 630 128 1131 568 1328 1169 63 193 79 302 79
543 0 185 -3 231 -23 328 -149 738 -728 1290 -1463 1397 -97 14 -352 18 -449
8z m-392 -1709 c42 -17 88 -57 107 -94 12 -24 11 -26 -31 -52 -33 -20 -45 -24
-51 -14 -15 24 -58 46 -91 46 -66 0 -122 -55 -122 -120 0 -32 27 -90 43 -90 9
0 -4 -24 -31 -59 l-19 -23 -38 33 c-120 106 -93 304 50 370 49 23 133 24 183
3z m1360 0 c142 -59 179 -261 66 -366 -41 -38 -49 -37 -78 1 l-26 35 20 21
c46 49 31 143 -29 178 -51 30 -126 16 -154 -29 -6 -10 -18 -6 -51 14 -42 26
-43 28 -31 52 19 36 64 76 105 94 46 20 131 20 178 0z m-555 -69 c229 -40 419
-164 544 -357 28 -42 62 -108 77 -148 48 -132 56 -210 56 -590 l0 -348 -112
-55 c-212 -104 -406 -159 -640 -179 -311 -27 -621 34 -915 179 l-113 55 0 348
c0 263 4 368 15 433 59 342 316 600 656 662 102 18 327 18 432 0z"/>
<path d="M2195 2121 c-11 -5 -33 -23 -50 -41 -26 -27 -30 -39 -30 -85 0 -50 3
-58 38 -92 34 -35 42 -38 92 -38 50 0 58 3 92 38 35 34 38 42 38 92 0 50 -3
58 -36 91 -29 28 -46 37 -80 40 -24 2 -53 0 -64 -5z"/>
<path d="M2805 2121 c-11 -5 -33 -23 -50 -41 -26 -27 -30 -39 -30 -85 0 -50 3
-58 38 -92 34 -35 42 -38 92 -38 50 0 58 3 92 38 35 34 38 42 38 92 0 50 -3
58 -36 91 -29 28 -46 37 -80 40 -24 2 -53 0 -64 -5z"/>
<path d="M2475 1555 c-46 -16 -85 -56 -85 -88 0 -83 145 -134 246 -88 76 35
95 92 46 141 -48 47 -131 62 -207 35z"/>
</g>
</svg>
